mtllib transparent_nozzle_bottle_v1.mtl
o transparent_nozzle_bottle_v1
v 19.00000 0.00000 7.00000
v 19.00000 0.00000 108.00000
v 18.92770 1.65596 7.00000
v 18.92770 1.65596 108.00000
v 18.71135 3.29932 7.00000
v 18.71135 3.29932 108.00000
v 18.35259 4.91756 7.00000
v 18.35259 4.91756 108.00000
v 17.85416 6.49838 7.00000
v 17.85416 6.49838 108.00000
v 17.21985 8.02975 7.00000
v 17.21985 8.02975 108.00000
v 16.45448 9.50000 7.00000
v 16.45448 9.50000 108.00000
v 15.56389 10.89795 7.00000
v 15.56389 10.89795 108.00000
v 14.55484 12.21296 7.00000
v 14.55484 12.21296 108.00000
v 13.43503 13.43503 7.00000
v 13.43503 13.43503 108.00000
v 12.21296 14.55484 7.00000
v 12.21296 14.55484 108.00000
v 10.89795 15.56389 7.00000
v 10.89795 15.56389 108.00000
v 9.50000 16.45448 7.00000
v 9.50000 16.45448 108.00000
v 8.02975 17.21985 7.00000
v 8.02975 17.21985 108.00000
v 6.49838 17.85416 7.00000
v 6.49838 17.85416 108.00000
v 4.91756 18.35259 7.00000
v 4.91756 18.35259 108.00000
v 3.29932 18.71135 7.00000
v 3.29932 18.71135 108.00000
v 1.65596 18.92770 7.00000
v 1.65596 18.92770 108.00000
v 0.00000 19.00000 7.00000
v 0.00000 19.00000 108.00000
v -1.65596 18.92770 7.00000
v -1.65596 18.92770 108.00000
v -3.29932 18.71135 7.00000
v -3.29932 18.71135 108.00000
v -4.91756 18.35259 7.00000
v -4.91756 18.35259 108.00000
v -6.49838 17.85416 7.00000
v -6.49838 17.85416 108.00000
v -8.02975 17.21985 7.00000
v -8.02975 17.21985 108.00000
v -9.50000 16.45448 7.00000
v -9.50000 16.45448 108.00000
v -10.89795 15.56389 7.00000
v -10.89795 15.56389 108.00000
v -12.21296 14.55484 7.00000
v -12.21296 14.55484 108.00000
v -13.43503 13.43503 7.00000
v -13.43503 13.43503 108.00000
v -14.55484 12.21296 7.00000
v -14.55484 12.21296 108.00000
v -15.56389 10.89795 7.00000
v -15.56389 10.89795 108.00000
v -16.45448 9.50000 7.00000
v -16.45448 9.50000 108.00000
v -17.21985 8.02975 7.00000
v -17.21985 8.02975 108.00000
v -17.85416 6.49838 7.00000
v -17.85416 6.49838 108.00000
v -18.35259 4.91756 7.00000
v -18.35259 4.91756 108.00000
v -18.71135 3.29932 7.00000
v -18.71135 3.29932 108.00000
v -18.92770 1.65596 7.00000
v -18.92770 1.65596 108.00000
v -19.00000 0.00000 7.00000
v -19.00000 0.00000 108.00000
v -18.92770 -1.65596 7.00000
v -18.92770 -1.65596 108.00000
v -18.71135 -3.29932 7.00000
v -18.71135 -3.29932 108.00000
v -18.35259 -4.91756 7.00000
v -18.35259 -4.91756 108.00000
v -17.85416 -6.49838 7.00000
v -17.85416 -6.49838 108.00000
v -17.21985 -8.02975 7.00000
v -17.21985 -8.02975 108.00000
v -16.45448 -9.50000 7.00000
v -16.45448 -9.50000 108.00000
v -15.56389 -10.89795 7.00000
v -15.56389 -10.89795 108.00000
v -14.55484 -12.21296 7.00000
v -14.55484 -12.21296 108.00000
v -13.43503 -13.43503 7.00000
v -13.43503 -13.43503 108.00000
v -12.21296 -14.55484 7.00000
v -12.21296 -14.55484 108.00000
v -10.89795 -15.56389 7.00000
v -10.89795 -15.56389 108.00000
v -9.50000 -16.45448 7.00000
v -9.50000 -16.45448 108.00000
v -8.02975 -17.21985 7.00000
v -8.02975 -17.21985 108.00000
v -6.49838 -17.85416 7.00000
v -6.49838 -17.85416 108.00000
v -4.91756 -18.35259 7.00000
v -4.91756 -18.35259 108.00000
v -3.29932 -18.71135 7.00000
v -3.29932 -18.71135 108.00000
v -1.65596 -18.92770 7.00000
v -1.65596 -18.92770 108.00000
v -0.00000 -19.00000 7.00000
v -0.00000 -19.00000 108.00000
v 1.65596 -18.92770 7.00000
v 1.65596 -18.92770 108.00000
v 3.29932 -18.71135 7.00000
v 3.29932 -18.71135 108.00000
v 4.91756 -18.35259 7.00000
v 4.91756 -18.35259 108.00000
v 6.49838 -17.85416 7.00000
v 6.49838 -17.85416 108.00000
v 8.02975 -17.21985 7.00000
v 8.02975 -17.21985 108.00000
v 9.50000 -16.45448 7.00000
v 9.50000 -16.45448 108.00000
v 10.89795 -15.56389 7.00000
v 10.89795 -15.56389 108.00000
v 12.21296 -14.55484 7.00000
v 12.21296 -14.55484 108.00000
v 13.43503 -13.43503 7.00000
v 13.43503 -13.43503 108.00000
v 14.55484 -12.21296 7.00000
v 14.55484 -12.21296 108.00000
v 15.56389 -10.89795 7.00000
v 15.56389 -10.89795 108.00000
v 16.45448 -9.50000 7.00000
v 16.45448 -9.50000 108.00000
v 17.21985 -8.02975 7.00000
v 17.21985 -8.02975 108.00000
v 17.85416 -6.49838 7.00000
v 17.85416 -6.49838 108.00000
v 18.35259 -4.91756 7.00000
v 18.35259 -4.91756 108.00000
v 18.71135 -3.29932 7.00000
v 18.71135 -3.29932 108.00000
v 18.92770 -1.65596 7.00000
v 18.92770 -1.65596 108.00000
v 0.00000 0.00000 7.00000
v 20.30000 0.00000 0.00000
v 20.30000 0.00000 8.00000
v 20.22275 1.76926 0.00000
v 20.22275 1.76926 8.00000
v 19.99160 3.52506 0.00000
v 19.99160 3.52506 8.00000
v 19.60829 5.25403 0.00000
v 19.60829 5.25403 8.00000
v 19.07576 6.94301 0.00000
v 19.07576 6.94301 8.00000
v 18.39805 8.57915 0.00000
v 18.39805 8.57915 8.00000
v 17.58032 10.15000 0.00000
v 17.58032 10.15000 8.00000
v 16.62879 11.64360 0.00000
v 16.62879 11.64360 8.00000
v 15.55070 13.04859 0.00000
v 15.55070 13.04859 8.00000
v 14.35427 14.35427 0.00000
v 14.35427 14.35427 8.00000
v 13.04859 15.55070 0.00000
v 13.04859 15.55070 8.00000
v 11.64360 16.62879 0.00000
v 11.64360 16.62879 8.00000
v 10.15000 17.58032 0.00000
v 10.15000 17.58032 8.00000
v 8.57915 18.39805 0.00000
v 8.57915 18.39805 8.00000
v 6.94301 19.07576 0.00000
v 6.94301 19.07576 8.00000
v 5.25403 19.60829 0.00000
v 5.25403 19.60829 8.00000
v 3.52506 19.99160 0.00000
v 3.52506 19.99160 8.00000
v 1.76926 20.22275 0.00000
v 1.76926 20.22275 8.00000
v 0.00000 20.30000 0.00000
v 0.00000 20.30000 8.00000
v -1.76926 20.22275 0.00000
v -1.76926 20.22275 8.00000
v -3.52506 19.99160 0.00000
v -3.52506 19.99160 8.00000
v -5.25403 19.60829 0.00000
v -5.25403 19.60829 8.00000
v -6.94301 19.07576 0.00000
v -6.94301 19.07576 8.00000
v -8.57915 18.39805 0.00000
v -8.57915 18.39805 8.00000
v -10.15000 17.58032 0.00000
v -10.15000 17.58032 8.00000
v -11.64360 16.62879 0.00000
v -11.64360 16.62879 8.00000
v -13.04859 15.55070 0.00000
v -13.04859 15.55070 8.00000
v -14.35427 14.35427 0.00000
v -14.35427 14.35427 8.00000
v -15.55070 13.04859 0.00000
v -15.55070 13.04859 8.00000
v -16.62879 11.64360 0.00000
v -16.62879 11.64360 8.00000
v -17.58032 10.15000 0.00000
v -17.58032 10.15000 8.00000
v -18.39805 8.57915 0.00000
v -18.39805 8.57915 8.00000
v -19.07576 6.94301 0.00000
v -19.07576 6.94301 8.00000
v -19.60829 5.25403 0.00000
v -19.60829 5.25403 8.00000
v -19.99160 3.52506 0.00000
v -19.99160 3.52506 8.00000
v -20.22275 1.76926 0.00000
v -20.22275 1.76926 8.00000
v -20.30000 0.00000 0.00000
v -20.30000 0.00000 8.00000
v -20.22275 -1.76926 0.00000
v -20.22275 -1.76926 8.00000
v -19.99160 -3.52506 0.00000
v -19.99160 -3.52506 8.00000
v -19.60829 -5.25403 0.00000
v -19.60829 -5.25403 8.00000
v -19.07576 -6.94301 0.00000
v -19.07576 -6.94301 8.00000
v -18.39805 -8.57915 0.00000
v -18.39805 -8.57915 8.00000
v -17.58032 -10.15000 0.00000
v -17.58032 -10.15000 8.00000
v -16.62879 -11.64360 0.00000
v -16.62879 -11.64360 8.00000
v -15.55070 -13.04859 0.00000
v -15.55070 -13.04859 8.00000
v -14.35427 -14.35427 0.00000
v -14.35427 -14.35427 8.00000
v -13.04859 -15.55070 0.00000
v -13.04859 -15.55070 8.00000
v -11.64360 -16.62879 0.00000
v -11.64360 -16.62879 8.00000
v -10.15000 -17.58032 0.00000
v -10.15000 -17.58032 8.00000
v -8.57915 -18.39805 0.00000
v -8.57915 -18.39805 8.00000
v -6.94301 -19.07576 0.00000
v -6.94301 -19.07576 8.00000
v -5.25403 -19.60829 0.00000
v -5.25403 -19.60829 8.00000
v -3.52506 -19.99160 0.00000
v -3.52506 -19.99160 8.00000
v -1.76926 -20.22275 0.00000
v -1.76926 -20.22275 8.00000
v -0.00000 -20.30000 0.00000
v -0.00000 -20.30000 8.00000
v 1.76926 -20.22275 0.00000
v 1.76926 -20.22275 8.00000
v 3.52506 -19.99160 0.00000
v 3.52506 -19.99160 8.00000
v 5.25403 -19.60829 0.00000
v 5.25403 -19.60829 8.00000
v 6.94301 -19.07576 0.00000
v 6.94301 -19.07576 8.00000
v 8.57915 -18.39805 0.00000
v 8.57915 -18.39805 8.00000
v 10.15000 -17.58032 0.00000
v 10.15000 -17.58032 8.00000
v 11.64360 -16.62879 0.00000
v 11.64360 -16.62879 8.00000
v 13.04859 -15.55070 0.00000
v 13.04859 -15.55070 8.00000
v 14.35427 -14.35427 0.00000
v 14.35427 -14.35427 8.00000
v 15.55070 -13.04859 0.00000
v 15.55070 -13.04859 8.00000
v 16.62879 -11.64360 0.00000
v 16.62879 -11.64360 8.00000
v 17.58032 -10.15000 0.00000
v 17.58032 -10.15000 8.00000
v 18.39805 -8.57915 0.00000
v 18.39805 -8.57915 8.00000
v 19.07576 -6.94301 0.00000
v 19.07576 -6.94301 8.00000
v 19.60829 -5.25403 0.00000
v 19.60829 -5.25403 8.00000
v 19.99160 -3.52506 0.00000
v 19.99160 -3.52506 8.00000
v 20.22275 -1.76926 0.00000
v 20.22275 -1.76926 8.00000
v 0.00000 0.00000 0.00000
v 16.00000 0.00000 108.00000
v 16.00000 0.00000 121.00000
v 15.93912 1.39449 108.00000
v 15.93912 1.39449 121.00000
v 15.75692 2.77837 108.00000
v 15.75692 2.77837 121.00000
v 15.45481 4.14110 108.00000
v 15.45481 4.14110 121.00000
v 15.03508 5.47232 108.00000
v 15.03508 5.47232 121.00000
v 14.50092 6.76189 108.00000
v 14.50092 6.76189 121.00000
v 13.85641 8.00000 108.00000
v 13.85641 8.00000 121.00000
v 13.10643 9.17722 108.00000
v 13.10643 9.17722 121.00000
v 12.25671 10.28460 108.00000
v 12.25671 10.28460 121.00000
v 11.31371 11.31371 108.00000
v 11.31371 11.31371 121.00000
v 10.28460 12.25671 108.00000
v 10.28460 12.25671 121.00000
v 9.17722 13.10643 108.00000
v 9.17722 13.10643 121.00000
v 8.00000 13.85641 108.00000
v 8.00000 13.85641 121.00000
v 6.76189 14.50092 108.00000
v 6.76189 14.50092 121.00000
v 5.47232 15.03508 108.00000
v 5.47232 15.03508 121.00000
v 4.14110 15.45481 108.00000
v 4.14110 15.45481 121.00000
v 2.77837 15.75692 108.00000
v 2.77837 15.75692 121.00000
v 1.39449 15.93912 108.00000
v 1.39449 15.93912 121.00000
v 0.00000 16.00000 108.00000
v 0.00000 16.00000 121.00000
v -1.39449 15.93912 108.00000
v -1.39449 15.93912 121.00000
v -2.77837 15.75692 108.00000
v -2.77837 15.75692 121.00000
v -4.14110 15.45481 108.00000
v -4.14110 15.45481 121.00000
v -5.47232 15.03508 108.00000
v -5.47232 15.03508 121.00000
v -6.76189 14.50092 108.00000
v -6.76189 14.50092 121.00000
v -8.00000 13.85641 108.00000
v -8.00000 13.85641 121.00000
v -9.17722 13.10643 108.00000
v -9.17722 13.10643 121.00000
v -10.28460 12.25671 108.00000
v -10.28460 12.25671 121.00000
v -11.31371 11.31371 108.00000
v -11.31371 11.31371 121.00000
v -12.25671 10.28460 108.00000
v -12.25671 10.28460 121.00000
v -13.10643 9.17722 108.00000
v -13.10643 9.17722 121.00000
v -13.85641 8.00000 108.00000
v -13.85641 8.00000 121.00000
v -14.50092 6.76189 108.00000
v -14.50092 6.76189 121.00000
v -15.03508 5.47232 108.00000
v -15.03508 5.47232 121.00000
v -15.45481 4.14110 108.00000
v -15.45481 4.14110 121.00000
v -15.75692 2.77837 108.00000
v -15.75692 2.77837 121.00000
v -15.93912 1.39449 108.00000
v -15.93912 1.39449 121.00000
v -16.00000 0.00000 108.00000
v -16.00000 0.00000 121.00000
v -15.93912 -1.39449 108.00000
v -15.93912 -1.39449 121.00000
v -15.75692 -2.77837 108.00000
v -15.75692 -2.77837 121.00000
v -15.45481 -4.14110 108.00000
v -15.45481 -4.14110 121.00000
v -15.03508 -5.47232 108.00000
v -15.03508 -5.47232 121.00000
v -14.50092 -6.76189 108.00000
v -14.50092 -6.76189 121.00000
v -13.85641 -8.00000 108.00000
v -13.85641 -8.00000 121.00000
v -13.10643 -9.17722 108.00000
v -13.10643 -9.17722 121.00000
v -12.25671 -10.28460 108.00000
v -12.25671 -10.28460 121.00000
v -11.31371 -11.31371 108.00000
v -11.31371 -11.31371 121.00000
v -10.28460 -12.25671 108.00000
v -10.28460 -12.25671 121.00000
v -9.17722 -13.10643 108.00000
v -9.17722 -13.10643 121.00000
v -8.00000 -13.85641 108.00000
v -8.00000 -13.85641 121.00000
v -6.76189 -14.50092 108.00000
v -6.76189 -14.50092 121.00000
v -5.47232 -15.03508 108.00000
v -5.47232 -15.03508 121.00000
v -4.14110 -15.45481 108.00000
v -4.14110 -15.45481 121.00000
v -2.77837 -15.75692 108.00000
v -2.77837 -15.75692 121.00000
v -1.39449 -15.93912 108.00000
v -1.39449 -15.93912 121.00000
v -0.00000 -16.00000 108.00000
v -0.00000 -16.00000 121.00000
v 1.39449 -15.93912 108.00000
v 1.39449 -15.93912 121.00000
v 2.77837 -15.75692 108.00000
v 2.77837 -15.75692 121.00000
v 4.14110 -15.45481 108.00000
v 4.14110 -15.45481 121.00000
v 5.47232 -15.03508 108.00000
v 5.47232 -15.03508 121.00000
v 6.76189 -14.50092 108.00000
v 6.76189 -14.50092 121.00000
v 8.00000 -13.85641 108.00000
v 8.00000 -13.85641 121.00000
v 9.17722 -13.10643 108.00000
v 9.17722 -13.10643 121.00000
v 10.28460 -12.25671 108.00000
v 10.28460 -12.25671 121.00000
v 11.31371 -11.31371 108.00000
v 11.31371 -11.31371 121.00000
v 12.25671 -10.28460 108.00000
v 12.25671 -10.28460 121.00000
v 13.10643 -9.17722 108.00000
v 13.10643 -9.17722 121.00000
v 13.85641 -8.00000 108.00000
v 13.85641 -8.00000 121.00000
v 14.50092 -6.76189 108.00000
v 14.50092 -6.76189 121.00000
v 15.03508 -5.47232 108.00000
v 15.03508 -5.47232 121.00000
v 15.45481 -4.14110 108.00000
v 15.45481 -4.14110 121.00000
v 15.75692 -2.77837 108.00000
v 15.75692 -2.77837 121.00000
v 15.93912 -1.39449 108.00000
v 15.93912 -1.39449 121.00000
v 14.80000 0.00000 121.00000
v 14.80000 0.00000 137.00000
v 14.74368 1.28990 121.00000
v 14.74368 1.28990 137.00000
v 13.59035 2.39634 121.00000
v 13.59035 2.39634 137.00000
v 13.32978 3.57170 121.00000
v 13.32978 3.57170 137.00000
v 13.90745 5.06190 121.00000
v 13.90745 5.06190 137.00000
v 13.41336 6.25475 121.00000
v 13.41336 6.25475 137.00000
v 11.95115 6.90000 121.00000
v 11.95115 6.90000 137.00000
v 11.30430 7.91535 121.00000
v 11.30430 7.91535 137.00000
v 11.33746 9.51326 121.00000
v 11.33746 9.51326 137.00000
v 10.46518 10.46518 121.00000
v 10.46518 10.46518 137.00000
v 8.87047 10.57141 121.00000
v 8.87047 10.57141 137.00000
v 7.91535 11.30430 121.00000
v 7.91535 11.30430 137.00000
v 7.40000 12.81718 121.00000
v 7.40000 12.81718 137.00000
v 6.25475 13.41336 121.00000
v 6.25475 13.41336 137.00000
v 4.71988 12.96776 121.00000
v 4.71988 12.96776 137.00000
v 3.57170 13.32978 121.00000
v 3.57170 13.32978 137.00000
v 2.56999 14.57515 121.00000
v 2.56999 14.57515 137.00000
v 1.28990 14.74368 121.00000
v 1.28990 14.74368 137.00000
v 0.00000 13.80000 121.00000
v 0.00000 13.80000 137.00000
v -1.20275 13.74749 121.00000
v -1.20275 13.74749 137.00000
v -2.56999 14.57515 121.00000
v -2.56999 14.57515 137.00000
v -3.83052 14.29570 121.00000
v -3.83052 14.29570 137.00000
v -4.71988 12.96776 121.00000
v -4.71988 12.96776 137.00000
v -5.83213 12.50705 121.00000
v -5.83213 12.50705 137.00000
v -7.40000 12.81718 121.00000
v -7.40000 12.81718 137.00000
v -8.48893 12.12345 121.00000
v -8.48893 12.12345 137.00000
v -8.87047 10.57141 121.00000
v -8.87047 10.57141 137.00000
v -9.75807 9.75807 121.00000
v -9.75807 9.75807 137.00000
v -11.33746 9.51326 121.00000
v -11.33746 9.51326 137.00000
v -12.12345 8.48893 121.00000
v -12.12345 8.48893 137.00000
v -12.81718 7.40000 121.00000
v -12.81718 7.40000 137.00000
v -12.50705 5.83213 121.00000
v -12.50705 5.83213 137.00000
v -13.90745 5.06190 121.00000
v -13.90745 5.06190 137.00000
v -14.29570 3.83052 121.00000
v -14.29570 3.83052 137.00000
v -13.59035 2.39634 121.00000
v -13.59035 2.39634 137.00000
v -13.74749 1.20275 121.00000
v -13.74749 1.20275 137.00000
v -14.80000 0.00000 121.00000
v -14.80000 0.00000 137.00000
v -14.74368 -1.28990 121.00000
v -14.74368 -1.28990 137.00000
v -13.59035 -2.39634 121.00000
v -13.59035 -2.39634 137.00000
v -13.32978 -3.57170 121.00000
v -13.32978 -3.57170 137.00000
v -13.90745 -5.06190 121.00000
v -13.90745 -5.06190 137.00000
v -13.41336 -6.25475 121.00000
v -13.41336 -6.25475 137.00000
v -11.95115 -6.90000 121.00000
v -11.95115 -6.90000 137.00000
v -11.30430 -7.91535 121.00000
v -11.30430 -7.91535 137.00000
v -11.33746 -9.51326 121.00000
v -11.33746 -9.51326 137.00000
v -10.46518 -10.46518 121.00000
v -10.46518 -10.46518 137.00000
v -8.87047 -10.57141 121.00000
v -8.87047 -10.57141 137.00000
v -7.91535 -11.30430 121.00000
v -7.91535 -11.30430 137.00000
v -7.40000 -12.81718 121.00000
v -7.40000 -12.81718 137.00000
v -6.25475 -13.41336 121.00000
v -6.25475 -13.41336 137.00000
v -4.71988 -12.96776 121.00000
v -4.71988 -12.96776 137.00000
v -3.57170 -13.32978 121.00000
v -3.57170 -13.32978 137.00000
v -2.56999 -14.57515 121.00000
v -2.56999 -14.57515 137.00000
v -1.28990 -14.74368 121.00000
v -1.28990 -14.74368 137.00000
v -0.00000 -13.80000 121.00000
v -0.00000 -13.80000 137.00000
v 1.20275 -13.74749 121.00000
v 1.20275 -13.74749 137.00000
v 2.56999 -14.57515 121.00000
v 2.56999 -14.57515 137.00000
v 3.83052 -14.29570 121.00000
v 3.83052 -14.29570 137.00000
v 4.71988 -12.96776 121.00000
v 4.71988 -12.96776 137.00000
v 5.83213 -12.50705 121.00000
v 5.83213 -12.50705 137.00000
v 6.90000 -11.95115 121.00000
v 6.90000 -11.95115 137.00000
v 8.48893 -12.12345 121.00000
v 8.48893 -12.12345 137.00000
v 8.87047 -10.57141 121.00000
v 8.87047 -10.57141 137.00000
v 9.75807 -9.75807 121.00000
v 9.75807 -9.75807 137.00000
v 11.33746 -9.51326 121.00000
v 11.33746 -9.51326 137.00000
v 12.12345 -8.48893 121.00000
v 12.12345 -8.48893 137.00000
v 11.95115 -6.90000 121.00000
v 11.95115 -6.90000 137.00000
v 12.50705 -5.83213 121.00000
v 12.50705 -5.83213 137.00000
v 13.90745 -5.06190 121.00000
v 13.90745 -5.06190 137.00000
v 14.29570 -3.83052 121.00000
v 14.29570 -3.83052 137.00000
v 13.59035 -2.39634 121.00000
v 13.59035 -2.39634 137.00000
v 13.74749 -1.20275 121.00000
v 13.74749 -1.20275 137.00000
v 0.00000 0.00000 121.00000
v 0.00000 0.00000 137.00000
v 10.00000 0.00000 137.00000
v 3.60000 0.00000 166.00000
v 9.96195 0.87156 137.00000
v 3.58630 0.31376 166.00000
v 9.84808 1.73648 137.00000
v 3.54531 0.62513 166.00000
v 9.65926 2.58819 137.00000
v 3.47733 0.93175 166.00000
v 9.39693 3.42020 137.00000
v 3.38289 1.23127 166.00000
v 9.06308 4.22618 137.00000
v 3.26271 1.52143 166.00000
v 8.66025 5.00000 137.00000
v 3.11769 1.80000 166.00000
v 8.19152 5.73576 137.00000
v 2.94895 2.06488 166.00000
v 7.66044 6.42788 137.00000
v 2.75776 2.31404 166.00000
v 7.07107 7.07107 137.00000
v 2.54558 2.54558 166.00000
v 6.42788 7.66044 137.00000
v 2.31404 2.75776 166.00000
v 5.73576 8.19152 137.00000
v 2.06488 2.94895 166.00000
v 5.00000 8.66025 137.00000
v 1.80000 3.11769 166.00000
v 4.22618 9.06308 137.00000
v 1.52143 3.26271 166.00000
v 3.42020 9.39693 137.00000
v 1.23127 3.38289 166.00000
v 2.58819 9.65926 137.00000
v 0.93175 3.47733 166.00000
v 1.73648 9.84808 137.00000
v 0.62513 3.54531 166.00000
v 0.87156 9.96195 137.00000
v 0.31376 3.58630 166.00000
v 0.00000 10.00000 137.00000
v 0.00000 3.60000 166.00000
v -0.87156 9.96195 137.00000
v -0.31376 3.58630 166.00000
v -1.73648 9.84808 137.00000
v -0.62513 3.54531 166.00000
v -2.58819 9.65926 137.00000
v -0.93175 3.47733 166.00000
v -3.42020 9.39693 137.00000
v -1.23127 3.38289 166.00000
v -4.22618 9.06308 137.00000
v -1.52143 3.26271 166.00000
v -5.00000 8.66025 137.00000
v -1.80000 3.11769 166.00000
v -5.73576 8.19152 137.00000
v -2.06488 2.94895 166.00000
v -6.42788 7.66044 137.00000
v -2.31404 2.75776 166.00000
v -7.07107 7.07107 137.00000
v -2.54558 2.54558 166.00000
v -7.66044 6.42788 137.00000
v -2.75776 2.31404 166.00000
v -8.19152 5.73576 137.00000
v -2.94895 2.06488 166.00000
v -8.66025 5.00000 137.00000
v -3.11769 1.80000 166.00000
v -9.06308 4.22618 137.00000
v -3.26271 1.52143 166.00000
v -9.39693 3.42020 137.00000
v -3.38289 1.23127 166.00000
v -9.65926 2.58819 137.00000
v -3.47733 0.93175 166.00000
v -9.84808 1.73648 137.00000
v -3.54531 0.62513 166.00000
v -9.96195 0.87156 137.00000
v -3.58630 0.31376 166.00000
v -10.00000 0.00000 137.00000
v -3.60000 0.00000 166.00000
v -9.96195 -0.87156 137.00000
v -3.58630 -0.31376 166.00000
v -9.84808 -1.73648 137.00000
v -3.54531 -0.62513 166.00000
v -9.65926 -2.58819 137.00000
v -3.47733 -0.93175 166.00000
v -9.39693 -3.42020 137.00000
v -3.38289 -1.23127 166.00000
v -9.06308 -4.22618 137.00000
v -3.26271 -1.52143 166.00000
v -8.66025 -5.00000 137.00000
v -3.11769 -1.80000 166.00000
v -8.19152 -5.73576 137.00000
v -2.94895 -2.06488 166.00000
v -7.66044 -6.42788 137.00000
v -2.75776 -2.31404 166.00000
v -7.07107 -7.07107 137.00000
v -2.54558 -2.54558 166.00000
v -6.42788 -7.66044 137.00000
v -2.31404 -2.75776 166.00000
v -5.73576 -8.19152 137.00000
v -2.06488 -2.94895 166.00000
v -5.00000 -8.66025 137.00000
v -1.80000 -3.11769 166.00000
v -4.22618 -9.06308 137.00000
v -1.52143 -3.26271 166.00000
v -3.42020 -9.39693 137.00000
v -1.23127 -3.38289 166.00000
v -2.58819 -9.65926 137.00000
v -0.93175 -3.47733 166.00000
v -1.73648 -9.84808 137.00000
v -0.62513 -3.54531 166.00000
v -0.87156 -9.96195 137.00000
v -0.31376 -3.58630 166.00000
v -0.00000 -10.00000 137.00000
v -0.00000 -3.60000 166.00000
v 0.87156 -9.96195 137.00000
v 0.31376 -3.58630 166.00000
v 1.73648 -9.84808 137.00000
v 0.62513 -3.54531 166.00000
v 2.58819 -9.65926 137.00000
v 0.93175 -3.47733 166.00000
v 3.42020 -9.39693 137.00000
v 1.23127 -3.38289 166.00000
v 4.22618 -9.06308 137.00000
v 1.52143 -3.26271 166.00000
v 5.00000 -8.66025 137.00000
v 1.80000 -3.11769 166.00000
v 5.73576 -8.19152 137.00000
v 2.06488 -2.94895 166.00000
v 6.42788 -7.66044 137.00000
v 2.31404 -2.75776 166.00000
v 7.07107 -7.07107 137.00000
v 2.54558 -2.54558 166.00000
v 7.66044 -6.42788 137.00000
v 2.75776 -2.31404 166.00000
v 8.19152 -5.73576 137.00000
v 2.94895 -2.06488 166.00000
v 8.66025 -5.00000 137.00000
v 3.11769 -1.80000 166.00000
v 9.06308 -4.22618 137.00000
v 3.26271 -1.52143 166.00000
v 9.39693 -3.42020 137.00000
v 3.38289 -1.23127 166.00000
v 9.65926 -2.58819 137.00000
v 3.47733 -0.93175 166.00000
v 9.84808 -1.73648 137.00000
v 3.54531 -0.62513 166.00000
v 9.96195 -0.87156 137.00000
v 3.58630 -0.31376 166.00000
v 0.00000 0.00000 166.00000
v 3.60000 0.00000 166.00000
v 2.00000 0.00000 171.00000
v 3.58630 0.31376 166.00000
v 1.99239 0.17431 171.00000
v 3.54531 0.62513 166.00000
v 1.96962 0.34730 171.00000
v 3.47733 0.93175 166.00000
v 1.93185 0.51764 171.00000
v 3.38289 1.23127 166.00000
v 1.87939 0.68404 171.00000
v 3.26271 1.52143 166.00000
v 1.81262 0.84524 171.00000
v 3.11769 1.80000 166.00000
v 1.73205 1.00000 171.00000
v 2.94895 2.06488 166.00000
v 1.63830 1.14715 171.00000
v 2.75776 2.31404 166.00000
v 1.53209 1.28558 171.00000
v 2.54558 2.54558 166.00000
v 1.41421 1.41421 171.00000
v 2.31404 2.75776 166.00000
v 1.28558 1.53209 171.00000
v 2.06488 2.94895 166.00000
v 1.14715 1.63830 171.00000
v 1.80000 3.11769 166.00000
v 1.00000 1.73205 171.00000
v 1.52143 3.26271 166.00000
v 0.84524 1.81262 171.00000
v 1.23127 3.38289 166.00000
v 0.68404 1.87939 171.00000
v 0.93175 3.47733 166.00000
v 0.51764 1.93185 171.00000
v 0.62513 3.54531 166.00000
v 0.34730 1.96962 171.00000
v 0.31376 3.58630 166.00000
v 0.17431 1.99239 171.00000
v 0.00000 3.60000 166.00000
v 0.00000 2.00000 171.00000
v -0.31376 3.58630 166.00000
v -0.17431 1.99239 171.00000
v -0.62513 3.54531 166.00000
v -0.34730 1.96962 171.00000
v -0.93175 3.47733 166.00000
v -0.51764 1.93185 171.00000
v -1.23127 3.38289 166.00000
v -0.68404 1.87939 171.00000
v -1.52143 3.26271 166.00000
v -0.84524 1.81262 171.00000
v -1.80000 3.11769 166.00000
v -1.00000 1.73205 171.00000
v -2.06488 2.94895 166.00000
v -1.14715 1.63830 171.00000
v -2.31404 2.75776 166.00000
v -1.28558 1.53209 171.00000
v -2.54558 2.54558 166.00000
v -1.41421 1.41421 171.00000
v -2.75776 2.31404 166.00000
v -1.53209 1.28558 171.00000
v -2.94895 2.06488 166.00000
v -1.63830 1.14715 171.00000
v -3.11769 1.80000 166.00000
v -1.73205 1.00000 171.00000
v -3.26271 1.52143 166.00000
v -1.81262 0.84524 171.00000
v -3.38289 1.23127 166.00000
v -1.87939 0.68404 171.00000
v -3.47733 0.93175 166.00000
v -1.93185 0.51764 171.00000
v -3.54531 0.62513 166.00000
v -1.96962 0.34730 171.00000
v -3.58630 0.31376 166.00000
v -1.99239 0.17431 171.00000
v -3.60000 0.00000 166.00000
v -2.00000 0.00000 171.00000
v -3.58630 -0.31376 166.00000
v -1.99239 -0.17431 171.00000
v -3.54531 -0.62513 166.00000
v -1.96962 -0.34730 171.00000
v -3.47733 -0.93175 166.00000
v -1.93185 -0.51764 171.00000
v -3.38289 -1.23127 166.00000
v -1.87939 -0.68404 171.00000
v -3.26271 -1.52143 166.00000
v -1.81262 -0.84524 171.00000
v -3.11769 -1.80000 166.00000
v -1.73205 -1.00000 171.00000
v -2.94895 -2.06488 166.00000
v -1.63830 -1.14715 171.00000
v -2.75776 -2.31404 166.00000
v -1.53209 -1.28558 171.00000
v -2.54558 -2.54558 166.00000
v -1.41421 -1.41421 171.00000
v -2.31404 -2.75776 166.00000
v -1.28558 -1.53209 171.00000
v -2.06488 -2.94895 166.00000
v -1.14715 -1.63830 171.00000
v -1.80000 -3.11769 166.00000
v -1.00000 -1.73205 171.00000
v -1.52143 -3.26271 166.00000
v -0.84524 -1.81262 171.00000
v -1.23127 -3.38289 166.00000
v -0.68404 -1.87939 171.00000
v -0.93175 -3.47733 166.00000
v -0.51764 -1.93185 171.00000
v -0.62513 -3.54531 166.00000
v -0.34730 -1.96962 171.00000
v -0.31376 -3.58630 166.00000
v -0.17431 -1.99239 171.00000
v -0.00000 -3.60000 166.00000
v -0.00000 -2.00000 171.00000
v 0.31376 -3.58630 166.00000
v 0.17431 -1.99239 171.00000
v 0.62513 -3.54531 166.00000
v 0.34730 -1.96962 171.00000
v 0.93175 -3.47733 166.00000
v 0.51764 -1.93185 171.00000
v 1.23127 -3.38289 166.00000
v 0.68404 -1.87939 171.00000
v 1.52143 -3.26271 166.00000
v 0.84524 -1.81262 171.00000
v 1.80000 -3.11769 166.00000
v 1.00000 -1.73205 171.00000
v 2.06488 -2.94895 166.00000
v 1.14715 -1.63830 171.00000
v 2.31404 -2.75776 166.00000
v 1.28558 -1.53209 171.00000
v 2.54558 -2.54558 166.00000
v 1.41421 -1.41421 171.00000
v 2.75776 -2.31404 166.00000
v 1.53209 -1.28558 171.00000
v 2.94895 -2.06488 166.00000
v 1.63830 -1.14715 171.00000
v 3.11769 -1.80000 166.00000
v 1.73205 -1.00000 171.00000
v 3.26271 -1.52143 166.00000
v 1.81262 -0.84524 171.00000
v 3.38289 -1.23127 166.00000
v 1.87939 -0.68404 171.00000
v 3.47733 -0.93175 166.00000
v 1.93185 -0.51764 171.00000
v 3.54531 -0.62513 166.00000
v 1.96962 -0.34730 171.00000
v 3.58630 -0.31376 166.00000
v 1.99239 -0.17431 171.00000
v 0.00000 0.00000 171.00000
v 18.95000 -1.00000 15.00000
v 18.95000 1.00000 15.00000
v 20.65000 1.00000 15.00000
v 20.65000 -1.00000 15.00000
v 18.95000 -1.00000 101.00000
v 18.95000 1.00000 101.00000
v 20.65000 1.00000 101.00000
v 20.65000 -1.00000 101.00000
v 14.10678 12.69257 15.00000
v 12.69257 14.10678 15.00000
v 13.89465 15.30886 15.00000
v 15.30886 13.89465 15.00000
v 14.10678 12.69257 101.00000
v 12.69257 14.10678 101.00000
v 13.89465 15.30886 101.00000
v 15.30886 13.89465 101.00000
v 1.00000 18.95000 15.00000
v -1.00000 18.95000 15.00000
v -1.00000 20.65000 15.00000
v 1.00000 20.65000 15.00000
v 1.00000 18.95000 101.00000
v -1.00000 18.95000 101.00000
v -1.00000 20.65000 101.00000
v 1.00000 20.65000 101.00000
v -12.69257 14.10678 15.00000
v -14.10678 12.69257 15.00000
v -15.30886 13.89465 15.00000
v -13.89465 15.30886 15.00000
v -12.69257 14.10678 101.00000
v -14.10678 12.69257 101.00000
v -15.30886 13.89465 101.00000
v -13.89465 15.30886 101.00000
v -18.95000 1.00000 15.00000
v -18.95000 -1.00000 15.00000
v -20.65000 -1.00000 15.00000
v -20.65000 1.00000 15.00000
v -18.95000 1.00000 101.00000
v -18.95000 -1.00000 101.00000
v -20.65000 -1.00000 101.00000
v -20.65000 1.00000 101.00000
v -14.10678 -12.69257 15.00000
v -12.69257 -14.10678 15.00000
v -13.89465 -15.30886 15.00000
v -15.30886 -13.89465 15.00000
v -14.10678 -12.69257 101.00000
v -12.69257 -14.10678 101.00000
v -13.89465 -15.30886 101.00000
v -15.30886 -13.89465 101.00000
v -1.00000 -18.95000 15.00000
v 1.00000 -18.95000 15.00000
v 1.00000 -20.65000 15.00000
v -1.00000 -20.65000 15.00000
v -1.00000 -18.95000 101.00000
v 1.00000 -18.95000 101.00000
v 1.00000 -20.65000 101.00000
v -1.00000 -20.65000 101.00000
v 12.69257 -14.10678 15.00000
v 14.10678 -12.69257 15.00000
v 15.30886 -13.89465 15.00000
v 13.89465 -15.30886 15.00000
v 12.69257 -14.10678 101.00000
v 14.10678 -12.69257 101.00000
v 15.30886 -13.89465 101.00000
v 13.89465 -15.30886 101.00000
v 21.00000 0.00000 3.00000
v 21.00000 0.00000 5.20000
v 20.92009 1.83027 3.00000
v 20.92009 1.83027 5.20000
v 20.68096 3.64661 3.00000
v 20.68096 3.64661 5.20000
v 20.28444 5.43520 3.00000
v 20.28444 5.43520 5.20000
v 19.73355 7.18242 3.00000
v 19.73355 7.18242 5.20000
v 19.03246 8.87498 3.00000
v 19.03246 8.87498 5.20000
v 18.18653 10.50000 3.00000
v 18.18653 10.50000 5.20000
v 17.20219 12.04511 3.00000
v 17.20219 12.04511 5.20000
v 16.08693 13.49854 3.00000
v 16.08693 13.49854 5.20000
v 14.84924 14.84924 3.00000
v 14.84924 14.84924 5.20000
v 13.49854 16.08693 3.00000
v 13.49854 16.08693 5.20000
v 12.04511 17.20219 3.00000
v 12.04511 17.20219 5.20000
v 10.50000 18.18653 3.00000
v 10.50000 18.18653 5.20000
v 8.87498 19.03246 3.00000
v 8.87498 19.03246 5.20000
v 7.18242 19.73355 3.00000
v 7.18242 19.73355 5.20000
v 5.43520 20.28444 3.00000
v 5.43520 20.28444 5.20000
v 3.64661 20.68096 3.00000
v 3.64661 20.68096 5.20000
v 1.83027 20.92009 3.00000
v 1.83027 20.92009 5.20000
v 0.00000 21.00000 3.00000
v 0.00000 21.00000 5.20000
v -1.83027 20.92009 3.00000
v -1.83027 20.92009 5.20000
v -3.64661 20.68096 3.00000
v -3.64661 20.68096 5.20000
v -5.43520 20.28444 3.00000
v -5.43520 20.28444 5.20000
v -7.18242 19.73355 3.00000
v -7.18242 19.73355 5.20000
v -8.87498 19.03246 3.00000
v -8.87498 19.03246 5.20000
v -10.50000 18.18653 3.00000
v -10.50000 18.18653 5.20000
v -12.04511 17.20219 3.00000
v -12.04511 17.20219 5.20000
v -13.49854 16.08693 3.00000
v -13.49854 16.08693 5.20000
v -14.84924 14.84924 3.00000
v -14.84924 14.84924 5.20000
v -16.08693 13.49854 3.00000
v -16.08693 13.49854 5.20000
v -17.20219 12.04511 3.00000
v -17.20219 12.04511 5.20000
v -18.18653 10.50000 3.00000
v -18.18653 10.50000 5.20000
v -19.03246 8.87498 3.00000
v -19.03246 8.87498 5.20000
v -19.73355 7.18242 3.00000
v -19.73355 7.18242 5.20000
v -20.28444 5.43520 3.00000
v -20.28444 5.43520 5.20000
v -20.68096 3.64661 3.00000
v -20.68096 3.64661 5.20000
v -20.92009 1.83027 3.00000
v -20.92009 1.83027 5.20000
v -21.00000 0.00000 3.00000
v -21.00000 0.00000 5.20000
v -20.92009 -1.83027 3.00000
v -20.92009 -1.83027 5.20000
v -20.68096 -3.64661 3.00000
v -20.68096 -3.64661 5.20000
v -20.28444 -5.43520 3.00000
v -20.28444 -5.43520 5.20000
v -19.73355 -7.18242 3.00000
v -19.73355 -7.18242 5.20000
v -19.03246 -8.87498 3.00000
v -19.03246 -8.87498 5.20000
v -18.18653 -10.50000 3.00000
v -18.18653 -10.50000 5.20000
v -17.20219 -12.04511 3.00000
v -17.20219 -12.04511 5.20000
v -16.08693 -13.49854 3.00000
v -16.08693 -13.49854 5.20000
v -14.84924 -14.84924 3.00000
v -14.84924 -14.84924 5.20000
v -13.49854 -16.08693 3.00000
v -13.49854 -16.08693 5.20000
v -12.04511 -17.20219 3.00000
v -12.04511 -17.20219 5.20000
v -10.50000 -18.18653 3.00000
v -10.50000 -18.18653 5.20000
v -8.87498 -19.03246 3.00000
v -8.87498 -19.03246 5.20000
v -7.18242 -19.73355 3.00000
v -7.18242 -19.73355 5.20000
v -5.43520 -20.28444 3.00000
v -5.43520 -20.28444 5.20000
v -3.64661 -20.68096 3.00000
v -3.64661 -20.68096 5.20000
v -1.83027 -20.92009 3.00000
v -1.83027 -20.92009 5.20000
v -0.00000 -21.00000 3.00000
v -0.00000 -21.00000 5.20000
v 1.83027 -20.92009 3.00000
v 1.83027 -20.92009 5.20000
v 3.64661 -20.68096 3.00000
v 3.64661 -20.68096 5.20000
v 5.43520 -20.28444 3.00000
v 5.43520 -20.28444 5.20000
v 7.18242 -19.73355 3.00000
v 7.18242 -19.73355 5.20000
v 8.87498 -19.03246 3.00000
v 8.87498 -19.03246 5.20000
v 10.50000 -18.18653 3.00000
v 10.50000 -18.18653 5.20000
v 12.04511 -17.20219 3.00000
v 12.04511 -17.20219 5.20000
v 13.49854 -16.08693 3.00000
v 13.49854 -16.08693 5.20000
v 14.84924 -14.84924 3.00000
v 14.84924 -14.84924 5.20000
v 16.08693 -13.49854 3.00000
v 16.08693 -13.49854 5.20000
v 17.20219 -12.04511 3.00000
v 17.20219 -12.04511 5.20000
v 18.18653 -10.50000 3.00000
v 18.18653 -10.50000 5.20000
v 19.03246 -8.87498 3.00000
v 19.03246 -8.87498 5.20000
v 19.73355 -7.18242 3.00000
v 19.73355 -7.18242 5.20000
v 20.28444 -5.43520 3.00000
v 20.28444 -5.43520 5.20000
v 20.68096 -3.64661 3.00000
v 20.68096 -3.64661 5.20000
v 20.92009 -1.83027 3.00000
v 20.92009 -1.83027 5.20000
v 17.00000 0.00000 104.00000
v 17.00000 0.00000 106.00000
v 16.93531 1.48165 104.00000
v 16.93531 1.48165 106.00000
v 16.74173 2.95202 104.00000
v 16.74173 2.95202 106.00000
v 16.42074 4.39992 104.00000
v 16.42074 4.39992 106.00000
v 15.97477 5.81434 104.00000
v 15.97477 5.81434 106.00000
v 15.40723 7.18451 104.00000
v 15.40723 7.18451 106.00000
v 14.72243 8.50000 104.00000
v 14.72243 8.50000 106.00000
v 13.92558 9.75080 104.00000
v 13.92558 9.75080 106.00000
v 13.02276 10.92739 104.00000
v 13.02276 10.92739 106.00000
v 12.02082 12.02082 104.00000
v 12.02082 12.02082 106.00000
v 10.92739 13.02276 104.00000
v 10.92739 13.02276 106.00000
v 9.75080 13.92558 104.00000
v 9.75080 13.92558 106.00000
v 8.50000 14.72243 104.00000
v 8.50000 14.72243 106.00000
v 7.18451 15.40723 104.00000
v 7.18451 15.40723 106.00000
v 5.81434 15.97477 104.00000
v 5.81434 15.97477 106.00000
v 4.39992 16.42074 104.00000
v 4.39992 16.42074 106.00000
v 2.95202 16.74173 104.00000
v 2.95202 16.74173 106.00000
v 1.48165 16.93531 104.00000
v 1.48165 16.93531 106.00000
v 0.00000 17.00000 104.00000
v 0.00000 17.00000 106.00000
v -1.48165 16.93531 104.00000
v -1.48165 16.93531 106.00000
v -2.95202 16.74173 104.00000
v -2.95202 16.74173 106.00000
v -4.39992 16.42074 104.00000
v -4.39992 16.42074 106.00000
v -5.81434 15.97477 104.00000
v -5.81434 15.97477 106.00000
v -7.18451 15.40723 104.00000
v -7.18451 15.40723 106.00000
v -8.50000 14.72243 104.00000
v -8.50000 14.72243 106.00000
v -9.75080 13.92558 104.00000
v -9.75080 13.92558 106.00000
v -10.92739 13.02276 104.00000
v -10.92739 13.02276 106.00000
v -12.02082 12.02082 104.00000
v -12.02082 12.02082 106.00000
v -13.02276 10.92739 104.00000
v -13.02276 10.92739 106.00000
v -13.92558 9.75080 104.00000
v -13.92558 9.75080 106.00000
v -14.72243 8.50000 104.00000
v -14.72243 8.50000 106.00000
v -15.40723 7.18451 104.00000
v -15.40723 7.18451 106.00000
v -15.97477 5.81434 104.00000
v -15.97477 5.81434 106.00000
v -16.42074 4.39992 104.00000
v -16.42074 4.39992 106.00000
v -16.74173 2.95202 104.00000
v -16.74173 2.95202 106.00000
v -16.93531 1.48165 104.00000
v -16.93531 1.48165 106.00000
v -17.00000 0.00000 104.00000
v -17.00000 0.00000 106.00000
v -16.93531 -1.48165 104.00000
v -16.93531 -1.48165 106.00000
v -16.74173 -2.95202 104.00000
v -16.74173 -2.95202 106.00000
v -16.42074 -4.39992 104.00000
v -16.42074 -4.39992 106.00000
v -15.97477 -5.81434 104.00000
v -15.97477 -5.81434 106.00000
v -15.40723 -7.18451 104.00000
v -15.40723 -7.18451 106.00000
v -14.72243 -8.50000 104.00000
v -14.72243 -8.50000 106.00000
v -13.92558 -9.75080 104.00000
v -13.92558 -9.75080 106.00000
v -13.02276 -10.92739 104.00000
v -13.02276 -10.92739 106.00000
v -12.02082 -12.02082 104.00000
v -12.02082 -12.02082 106.00000
v -10.92739 -13.02276 104.00000
v -10.92739 -13.02276 106.00000
v -9.75080 -13.92558 104.00000
v -9.75080 -13.92558 106.00000
v -8.50000 -14.72243 104.00000
v -8.50000 -14.72243 106.00000
v -7.18451 -15.40723 104.00000
v -7.18451 -15.40723 106.00000
v -5.81434 -15.97477 104.00000
v -5.81434 -15.97477 106.00000
v -4.39992 -16.42074 104.00000
v -4.39992 -16.42074 106.00000
v -2.95202 -16.74173 104.00000
v -2.95202 -16.74173 106.00000
v -1.48165 -16.93531 104.00000
v -1.48165 -16.93531 106.00000
v -0.00000 -17.00000 104.00000
v -0.00000 -17.00000 106.00000
v 1.48165 -16.93531 104.00000
v 1.48165 -16.93531 106.00000
v 2.95202 -16.74173 104.00000
v 2.95202 -16.74173 106.00000
v 4.39992 -16.42074 104.00000
v 4.39992 -16.42074 106.00000
v 5.81434 -15.97477 104.00000
v 5.81434 -15.97477 106.00000
v 7.18451 -15.40723 104.00000
v 7.18451 -15.40723 106.00000
v 8.50000 -14.72243 104.00000
v 8.50000 -14.72243 106.00000
v 9.75080 -13.92558 104.00000
v 9.75080 -13.92558 106.00000
v 10.92739 -13.02276 104.00000
v 10.92739 -13.02276 106.00000
v 12.02082 -12.02082 104.00000
v 12.02082 -12.02082 106.00000
v 13.02276 -10.92739 104.00000
v 13.02276 -10.92739 106.00000
v 13.92558 -9.75080 104.00000
v 13.92558 -9.75080 106.00000
v 14.72243 -8.50000 104.00000
v 14.72243 -8.50000 106.00000
v 15.40723 -7.18451 104.00000
v 15.40723 -7.18451 106.00000
v 15.97477 -5.81434 104.00000
v 15.97477 -5.81434 106.00000
v 16.42074 -4.39992 104.00000
v 16.42074 -4.39992 106.00000
v 16.74173 -2.95202 104.00000
v 16.74173 -2.95202 106.00000
v 16.93531 -1.48165 104.00000
v 16.93531 -1.48165 106.00000
usemtl clear_glass
f 1 3 4 2
f 3 5 6 4
f 5 7 8 6
f 7 9 10 8
f 9 11 12 10
f 11 13 14 12
f 13 15 16 14
f 15 17 18 16
f 17 19 20 18
f 19 21 22 20
f 21 23 24 22
f 23 25 26 24
f 25 27 28 26
f 27 29 30 28
f 29 31 32 30
f 31 33 34 32
f 33 35 36 34
f 35 37 38 36
f 37 39 40 38
f 39 41 42 40
f 41 43 44 42
f 43 45 46 44
f 45 47 48 46
f 47 49 50 48
f 49 51 52 50
f 51 53 54 52
f 53 55 56 54
f 55 57 58 56
f 57 59 60 58
f 59 61 62 60
f 61 63 64 62
f 63 65 66 64
f 65 67 68 66
f 67 69 70 68
f 69 71 72 70
f 71 73 74 72
f 73 75 76 74
f 75 77 78 76
f 77 79 80 78
f 79 81 82 80
f 81 83 84 82
f 83 85 86 84
f 85 87 88 86
f 87 89 90 88
f 89 91 92 90
f 91 93 94 92
f 93 95 96 94
f 95 97 98 96
f 97 99 100 98
f 99 101 102 100
f 101 103 104 102
f 103 105 106 104
f 105 107 108 106
f 107 109 110 108
f 109 111 112 110
f 111 113 114 112
f 113 115 116 114
f 115 117 118 116
f 117 119 120 118
f 119 121 122 120
f 121 123 124 122
f 123 125 126 124
f 125 127 128 126
f 127 129 130 128
f 129 131 132 130
f 131 133 134 132
f 133 135 136 134
f 135 137 138 136
f 137 139 140 138
f 139 141 142 140
f 141 143 144 142
f 143 1 2 144
f 145 1 3
f 145 3 5
f 145 5 7
f 145 7 9
f 145 9 11
f 145 11 13
f 145 13 15
f 145 15 17
f 145 17 19
f 145 19 21
f 145 21 23
f 145 23 25
f 145 25 27
f 145 27 29
f 145 29 31
f 145 31 33
f 145 33 35
f 145 35 37
f 145 37 39
f 145 39 41
f 145 41 43
f 145 43 45
f 145 45 47
f 145 47 49
f 145 49 51
f 145 51 53
f 145 53 55
f 145 55 57
f 145 57 59
f 145 59 61
f 145 61 63
f 145 63 65
f 145 65 67
f 145 67 69
f 145 69 71
f 145 71 73
f 145 73 75
f 145 75 77
f 145 77 79
f 145 79 81
f 145 81 83
f 145 83 85
f 145 85 87
f 145 87 89
f 145 89 91
f 145 91 93
f 145 93 95
f 145 95 97
f 145 97 99
f 145 99 101
f 145 101 103
f 145 103 105
f 145 105 107
f 145 107 109
f 145 109 111
f 145 111 113
f 145 113 115
f 145 115 117
f 145 117 119
f 145 119 121
f 145 121 123
f 145 123 125
f 145 125 127
f 145 127 129
f 145 129 131
f 145 131 133
f 145 133 135
f 145 135 137
f 145 137 139
f 145 139 141
f 145 141 143
f 145 143 1
usemtl thick_glass_edge
f 146 148 149 147
f 148 150 151 149
f 150 152 153 151
f 152 154 155 153
f 154 156 157 155
f 156 158 159 157
f 158 160 161 159
f 160 162 163 161
f 162 164 165 163
f 164 166 167 165
f 166 168 169 167
f 168 170 171 169
f 170 172 173 171
f 172 174 175 173
f 174 176 177 175
f 176 178 179 177
f 178 180 181 179
f 180 182 183 181
f 182 184 185 183
f 184 186 187 185
f 186 188 189 187
f 188 190 191 189
f 190 192 193 191
f 192 194 195 193
f 194 196 197 195
f 196 198 199 197
f 198 200 201 199
f 200 202 203 201
f 202 204 205 203
f 204 206 207 205
f 206 208 209 207
f 208 210 211 209
f 210 212 213 211
f 212 214 215 213
f 214 216 217 215
f 216 218 219 217
f 218 220 221 219
f 220 222 223 221
f 222 224 225 223
f 224 226 227 225
f 226 228 229 227
f 228 230 231 229
f 230 232 233 231
f 232 234 235 233
f 234 236 237 235
f 236 238 239 237
f 238 240 241 239
f 240 242 243 241
f 242 244 245 243
f 244 246 247 245
f 246 248 249 247
f 248 250 251 249
f 250 252 253 251
f 252 254 255 253
f 254 256 257 255
f 256 258 259 257
f 258 260 261 259
f 260 262 263 261
f 262 264 265 263
f 264 266 267 265
f 266 268 269 267
f 268 270 271 269
f 270 272 273 271
f 272 274 275 273
f 274 276 277 275
f 276 278 279 277
f 278 280 281 279
f 280 282 283 281
f 282 284 285 283
f 284 286 287 285
f 286 288 289 287
f 288 146 147 289
f 290 146 148
f 290 148 150
f 290 150 152
f 290 152 154
f 290 154 156
f 290 156 158
f 290 158 160
f 290 160 162
f 290 162 164
f 290 164 166
f 290 166 168
f 290 168 170
f 290 170 172
f 290 172 174
f 290 174 176
f 290 176 178
f 290 178 180
f 290 180 182
f 290 182 184
f 290 184 186
f 290 186 188
f 290 188 190
f 290 190 192
f 290 192 194
f 290 194 196
f 290 196 198
f 290 198 200
f 290 200 202
f 290 202 204
f 290 204 206
f 290 206 208
f 290 208 210
f 290 210 212
f 290 212 214
f 290 214 216
f 290 216 218
f 290 218 220
f 290 220 222
f 290 222 224
f 290 224 226
f 290 226 228
f 290 228 230
f 290 230 232
f 290 232 234
f 290 234 236
f 290 236 238
f 290 238 240
f 290 240 242
f 290 242 244
f 290 244 246
f 290 246 248
f 290 248 250
f 290 250 252
f 290 252 254
f 290 254 256
f 290 256 258
f 290 258 260
f 290 260 262
f 290 262 264
f 290 264 266
f 290 266 268
f 290 268 270
f 290 270 272
f 290 272 274
f 290 274 276
f 290 276 278
f 290 278 280
f 290 280 282
f 290 282 284
f 290 284 286
f 290 286 288
f 290 288 146
usemtl clear_glass
f 291 293 294 292
f 293 295 296 294
f 295 297 298 296
f 297 299 300 298
f 299 301 302 300
f 301 303 304 302
f 303 305 306 304
f 305 307 308 306
f 307 309 310 308
f 309 311 312 310
f 311 313 314 312
f 313 315 316 314
f 315 317 318 316
f 317 319 320 318
f 319 321 322 320
f 321 323 324 322
f 323 325 326 324
f 325 327 328 326
f 327 329 330 328
f 329 331 332 330
f 331 333 334 332
f 333 335 336 334
f 335 337 338 336
f 337 339 340 338
f 339 341 342 340
f 341 343 344 342
f 343 345 346 344
f 345 347 348 346
f 347 349 350 348
f 349 351 352 350
f 351 353 354 352
f 353 355 356 354
f 355 357 358 356
f 357 359 360 358
f 359 361 362 360
f 361 363 364 362
f 363 365 366 364
f 365 367 368 366
f 367 369 370 368
f 369 371 372 370
f 371 373 374 372
f 373 375 376 374
f 375 377 378 376
f 377 379 380 378
f 379 381 382 380
f 381 383 384 382
f 383 385 386 384
f 385 387 388 386
f 387 389 390 388
f 389 391 392 390
f 391 393 394 392
f 393 395 396 394
f 395 397 398 396
f 397 399 400 398
f 399 401 402 400
f 401 403 404 402
f 403 405 406 404
f 405 407 408 406
f 407 409 410 408
f 409 411 412 410
f 411 413 414 412
f 413 415 416 414
f 415 417 418 416
f 417 419 420 418
f 419 421 422 420
f 421 423 424 422
f 423 425 426 424
f 425 427 428 426
f 427 429 430 428
f 429 431 432 430
f 431 433 434 432
f 433 291 292 434
usemtl black_ribbed_cap
f 435 437 438 436
f 437 439 440 438
f 439 441 442 440
f 441 443 444 442
f 443 445 446 444
f 445 447 448 446
f 447 449 450 448
f 449 451 452 450
f 451 453 454 452
f 453 455 456 454
f 455 457 458 456
f 457 459 460 458
f 459 461 462 460
f 461 463 464 462
f 463 465 466 464
f 465 467 468 466
f 467 469 470 468
f 469 471 472 470
f 471 473 474 472
f 473 475 476 474
f 475 477 478 476
f 477 479 480 478
f 479 481 482 480
f 481 483 484 482
f 483 485 486 484
f 485 487 488 486
f 487 489 490 488
f 489 491 492 490
f 491 493 494 492
f 493 495 496 494
f 495 497 498 496
f 497 499 500 498
f 499 501 502 500
f 501 503 504 502
f 503 505 506 504
f 505 507 508 506
f 507 509 510 508
f 509 511 512 510
f 511 513 514 512
f 513 515 516 514
f 515 517 518 516
f 517 519 520 518
f 519 521 522 520
f 521 523 524 522
f 523 525 526 524
f 525 527 528 526
f 527 529 530 528
f 529 531 532 530
f 531 533 534 532
f 533 535 536 534
f 535 537 538 536
f 537 539 540 538
f 539 541 542 540
f 541 543 544 542
f 543 545 546 544
f 545 547 548 546
f 547 549 550 548
f 549 551 552 550
f 551 553 554 552
f 553 555 556 554
f 555 557 558 556
f 557 559 560 558
f 559 561 562 560
f 561 563 564 562
f 563 565 566 564
f 565 567 568 566
f 567 569 570 568
f 569 571 572 570
f 571 573 574 572
f 573 575 576 574
f 575 577 578 576
f 577 435 436 578
f 579 435 437
f 579 437 439
f 579 439 441
f 579 441 443
f 579 443 445
f 579 445 447
f 579 447 449
f 579 449 451
f 579 451 453
f 579 453 455
f 579 455 457
f 579 457 459
f 579 459 461
f 579 461 463
f 579 463 465
f 579 465 467
f 579 467 469
f 579 469 471
f 579 471 473
f 579 473 475
f 579 475 477
f 579 477 479
f 579 479 481
f 579 481 483
f 579 483 485
f 579 485 487
f 579 487 489
f 579 489 491
f 579 491 493
f 579 493 495
f 579 495 497
f 579 497 499
f 579 499 501
f 579 501 503
f 579 503 505
f 579 505 507
f 579 507 509
f 579 509 511
f 579 511 513
f 579 513 515
f 579 515 517
f 579 517 519
f 579 519 521
f 579 521 523
f 579 523 525
f 579 525 527
f 579 527 529
f 579 529 531
f 579 531 533
f 579 533 535
f 579 535 537
f 579 537 539
f 579 539 541
f 579 541 543
f 579 543 545
f 579 545 547
f 579 547 549
f 579 549 551
f 579 551 553
f 579 553 555
f 579 555 557
f 579 557 559
f 579 559 561
f 579 561 563
f 579 563 565
f 579 565 567
f 579 567 569
f 579 569 571
f 579 571 573
f 579 573 575
f 579 575 577
f 579 577 435
f 580 438 436
f 580 440 438
f 580 442 440
f 580 444 442
f 580 446 444
f 580 448 446
f 580 450 448
f 580 452 450
f 580 454 452
f 580 456 454
f 580 458 456
f 580 460 458
f 580 462 460
f 580 464 462
f 580 466 464
f 580 468 466
f 580 470 468
f 580 472 470
f 580 474 472
f 580 476 474
f 580 478 476
f 580 480 478
f 580 482 480
f 580 484 482
f 580 486 484
f 580 488 486
f 580 490 488
f 580 492 490
f 580 494 492
f 580 496 494
f 580 498 496
f 580 500 498
f 580 502 500
f 580 504 502
f 580 506 504
f 580 508 506
f 580 510 508
f 580 512 510
f 580 514 512
f 580 516 514
f 580 518 516
f 580 520 518
f 580 522 520
f 580 524 522
f 580 526 524
f 580 528 526
f 580 530 528
f 580 532 530
f 580 534 532
f 580 536 534
f 580 538 536
f 580 540 538
f 580 542 540
f 580 544 542
f 580 546 544
f 580 548 546
f 580 550 548
f 580 552 550
f 580 554 552
f 580 556 554
f 580 558 556
f 580 560 558
f 580 562 560
f 580 564 562
f 580 566 564
f 580 568 566
f 580 570 568
f 580 572 570
f 580 574 572
f 580 576 574
f 580 578 576
f 580 436 578
usemtl red_nozzle
f 581 583 584 582
f 583 585 586 584
f 585 587 588 586
f 587 589 590 588
f 589 591 592 590
f 591 593 594 592
f 593 595 596 594
f 595 597 598 596
f 597 599 600 598
f 599 601 602 600
f 601 603 604 602
f 603 605 606 604
f 605 607 608 606
f 607 609 610 608
f 609 611 612 610
f 611 613 614 612
f 613 615 616 614
f 615 617 618 616
f 617 619 620 618
f 619 621 622 620
f 621 623 624 622
f 623 625 626 624
f 625 627 628 626
f 627 629 630 628
f 629 631 632 630
f 631 633 634 632
f 633 635 636 634
f 635 637 638 636
f 637 639 640 638
f 639 641 642 640
f 641 643 644 642
f 643 645 646 644
f 645 647 648 646
f 647 649 650 648
f 649 651 652 650
f 651 653 654 652
f 653 655 656 654
f 655 657 658 656
f 657 659 660 658
f 659 661 662 660
f 661 663 664 662
f 663 665 666 664
f 665 667 668 666
f 667 669 670 668
f 669 671 672 670
f 671 673 674 672
f 673 675 676 674
f 675 677 678 676
f 677 679 680 678
f 679 681 682 680
f 681 683 684 682
f 683 685 686 684
f 685 687 688 686
f 687 689 690 688
f 689 691 692 690
f 691 693 694 692
f 693 695 696 694
f 695 697 698 696
f 697 699 700 698
f 699 701 702 700
f 701 703 704 702
f 703 705 706 704
f 705 707 708 706
f 707 709 710 708
f 709 711 712 710
f 711 713 714 712
f 713 715 716 714
f 715 717 718 716
f 717 719 720 718
f 719 721 722 720
f 721 723 724 722
f 723 581 582 724
f 725 582 584
f 725 584 586
f 725 586 588
f 725 588 590
f 725 590 592
f 725 592 594
f 725 594 596
f 725 596 598
f 725 598 600
f 725 600 602
f 725 602 604
f 725 604 606
f 725 606 608
f 725 608 610
f 725 610 612
f 725 612 614
f 725 614 616
f 725 616 618
f 725 618 620
f 725 620 622
f 725 622 624
f 725 624 626
f 725 626 628
f 725 628 630
f 725 630 632
f 725 632 634
f 725 634 636
f 725 636 638
f 725 638 640
f 725 640 642
f 725 642 644
f 725 644 646
f 725 646 648
f 725 648 650
f 725 650 652
f 725 652 654
f 725 654 656
f 725 656 658
f 725 658 660
f 725 660 662
f 725 662 664
f 725 664 666
f 725 666 668
f 725 668 670
f 725 670 672
f 725 672 674
f 725 674 676
f 725 676 678
f 725 678 680
f 725 680 682
f 725 682 684
f 725 684 686
f 725 686 688
f 725 688 690
f 725 690 692
f 725 692 694
f 725 694 696
f 725 696 698
f 725 698 700
f 725 700 702
f 725 702 704
f 725 704 706
f 725 706 708
f 725 708 710
f 725 710 712
f 725 712 714
f 725 714 716
f 725 716 718
f 725 718 720
f 725 720 722
f 725 722 724
f 725 724 582
usemtl red_nozzle_tip
f 726 728 729 727
f 728 730 731 729
f 730 732 733 731
f 732 734 735 733
f 734 736 737 735
f 736 738 739 737
f 738 740 741 739
f 740 742 743 741
f 742 744 745 743
f 744 746 747 745
f 746 748 749 747
f 748 750 751 749
f 750 752 753 751
f 752 754 755 753
f 754 756 757 755
f 756 758 759 757
f 758 760 761 759
f 760 762 763 761
f 762 764 765 763
f 764 766 767 765
f 766 768 769 767
f 768 770 771 769
f 770 772 773 771
f 772 774 775 773
f 774 776 777 775
f 776 778 779 777
f 778 780 781 779
f 780 782 783 781
f 782 784 785 783
f 784 786 787 785
f 786 788 789 787
f 788 790 791 789
f 790 792 793 791
f 792 794 795 793
f 794 796 797 795
f 796 798 799 797
f 798 800 801 799
f 800 802 803 801
f 802 804 805 803
f 804 806 807 805
f 806 808 809 807
f 808 810 811 809
f 810 812 813 811
f 812 814 815 813
f 814 816 817 815
f 816 818 819 817
f 818 820 821 819
f 820 822 823 821
f 822 824 825 823
f 824 826 827 825
f 826 828 829 827
f 828 830 831 829
f 830 832 833 831
f 832 834 835 833
f 834 836 837 835
f 836 838 839 837
f 838 840 841 839
f 840 842 843 841
f 842 844 845 843
f 844 846 847 845
f 846 848 849 847
f 848 850 851 849
f 850 852 853 851
f 852 854 855 853
f 854 856 857 855
f 856 858 859 857
f 858 860 861 859
f 860 862 863 861
f 862 864 865 863
f 864 866 867 865
f 866 868 869 867
f 868 726 727 869
f 870 727 729
f 870 729 731
f 870 731 733
f 870 733 735
f 870 735 737
f 870 737 739
f 870 739 741
f 870 741 743
f 870 743 745
f 870 745 747
f 870 747 749
f 870 749 751
f 870 751 753
f 870 753 755
f 870 755 757
f 870 757 759
f 870 759 761
f 870 761 763
f 870 763 765
f 870 765 767
f 870 767 769
f 870 769 771
f 870 771 773
f 870 773 775
f 870 775 777
f 870 777 779
f 870 779 781
f 870 781 783
f 870 783 785
f 870 785 787
f 870 787 789
f 870 789 791
f 870 791 793
f 870 793 795
f 870 795 797
f 870 797 799
f 870 799 801
f 870 801 803
f 870 803 805
f 870 805 807
f 870 807 809
f 870 809 811
f 870 811 813
f 870 813 815
f 870 815 817
f 870 817 819
f 870 819 821
f 870 821 823
f 870 823 825
f 870 825 827
f 870 827 829
f 870 829 831
f 870 831 833
f 870 833 835
f 870 835 837
f 870 837 839
f 870 839 841
f 870 841 843
f 870 843 845
f 870 845 847
f 870 847 849
f 870 849 851
f 870 851 853
f 870 853 855
f 870 855 857
f 870 857 859
f 870 859 861
f 870 861 863
f 870 863 865
f 870 865 867
f 870 867 869
f 870 869 727
usemtl glass_highlight
f 871 872 873 874
f 875 878 877 876
f 871 875 876 872
f 872 876 877 873
f 873 877 878 874
f 874 878 875 871
f 879 880 881 882
f 883 886 885 884
f 879 883 884 880
f 880 884 885 881
f 881 885 886 882
f 882 886 883 879
f 887 888 889 890
f 891 894 893 892
f 887 891 892 888
f 888 892 893 889
f 889 893 894 890
f 890 894 891 887
f 895 896 897 898
f 899 902 901 900
f 895 899 900 896
f 896 900 901 897
f 897 901 902 898
f 898 902 899 895
f 903 904 905 906
f 907 910 909 908
f 903 907 908 904
f 904 908 909 905
f 905 909 910 906
f 906 910 907 903
f 911 912 913 914
f 915 918 917 916
f 911 915 916 912
f 912 916 917 913
f 913 917 918 914
f 914 918 915 911
f 919 920 921 922
f 923 926 925 924
f 919 923 924 920
f 920 924 925 921
f 921 925 926 922
f 922 926 923 919
f 927 928 929 930
f 931 934 933 932
f 927 931 932 928
f 928 932 933 929
f 929 933 934 930
f 930 934 931 927
usemtl white_glass_edge
f 935 937 938 936
f 937 939 940 938
f 939 941 942 940
f 941 943 944 942
f 943 945 946 944
f 945 947 948 946
f 947 949 950 948
f 949 951 952 950
f 951 953 954 952
f 953 955 956 954
f 955 957 958 956
f 957 959 960 958
f 959 961 962 960
f 961 963 964 962
f 963 965 966 964
f 965 967 968 966
f 967 969 970 968
f 969 971 972 970
f 971 973 974 972
f 973 975 976 974
f 975 977 978 976
f 977 979 980 978
f 979 981 982 980
f 981 983 984 982
f 983 985 986 984
f 985 987 988 986
f 987 989 990 988
f 989 991 992 990
f 991 993 994 992
f 993 995 996 994
f 995 997 998 996
f 997 999 1000 998
f 999 1001 1002 1000
f 1001 1003 1004 1002
f 1003 1005 1006 1004
f 1005 1007 1008 1006
f 1007 1009 1010 1008
f 1009 1011 1012 1010
f 1011 1013 1014 1012
f 1013 1015 1016 1014
f 1015 1017 1018 1016
f 1017 1019 1020 1018
f 1019 1021 1022 1020
f 1021 1023 1024 1022
f 1023 1025 1026 1024
f 1025 1027 1028 1026
f 1027 1029 1030 1028
f 1029 1031 1032 1030
f 1031 1033 1034 1032
f 1033 1035 1036 1034
f 1035 1037 1038 1036
f 1037 1039 1040 1038
f 1039 1041 1042 1040
f 1041 1043 1044 1042
f 1043 1045 1046 1044
f 1045 1047 1048 1046
f 1047 1049 1050 1048
f 1049 1051 1052 1050
f 1051 1053 1054 1052
f 1053 1055 1056 1054
f 1055 1057 1058 1056
f 1057 1059 1060 1058
f 1059 1061 1062 1060
f 1061 1063 1064 1062
f 1063 1065 1066 1064
f 1065 1067 1068 1066
f 1067 1069 1070 1068
f 1069 1071 1072 1070
f 1071 1073 1074 1072
f 1073 1075 1076 1074
f 1075 1077 1078 1076
f 1077 935 936 1078
f 1079 1081 1082 1080
f 1081 1083 1084 1082
f 1083 1085 1086 1084
f 1085 1087 1088 1086
f 1087 1089 1090 1088
f 1089 1091 1092 1090
f 1091 1093 1094 1092
f 1093 1095 1096 1094
f 1095 1097 1098 1096
f 1097 1099 1100 1098
f 1099 1101 1102 1100
f 1101 1103 1104 1102
f 1103 1105 1106 1104
f 1105 1107 1108 1106
f 1107 1109 1110 1108
f 1109 1111 1112 1110
f 1111 1113 1114 1112
f 1113 1115 1116 1114
f 1115 1117 1118 1116
f 1117 1119 1120 1118
f 1119 1121 1122 1120
f 1121 1123 1124 1122
f 1123 1125 1126 1124
f 1125 1127 1128 1126
f 1127 1129 1130 1128
f 1129 1131 1132 1130
f 1131 1133 1134 1132
f 1133 1135 1136 1134
f 1135 1137 1138 1136
f 1137 1139 1140 1138
f 1139 1141 1142 1140
f 1141 1143 1144 1142
f 1143 1145 1146 1144
f 1145 1147 1148 1146
f 1147 1149 1150 1148
f 1149 1151 1152 1150
f 1151 1153 1154 1152
f 1153 1155 1156 1154
f 1155 1157 1158 1156
f 1157 1159 1160 1158
f 1159 1161 1162 1160
f 1161 1163 1164 1162
f 1163 1165 1166 1164
f 1165 1167 1168 1166
f 1167 1169 1170 1168
f 1169 1171 1172 1170
f 1171 1173 1174 1172
f 1173 1175 1176 1174
f 1175 1177 1178 1176
f 1177 1179 1180 1178
f 1179 1181 1182 1180
f 1181 1183 1184 1182
f 1183 1185 1186 1184
f 1185 1187 1188 1186
f 1187 1189 1190 1188
f 1189 1191 1192 1190
f 1191 1193 1194 1192
f 1193 1195 1196 1194
f 1195 1197 1198 1196
f 1197 1199 1200 1198
f 1199 1201 1202 1200
f 1201 1203 1204 1202
f 1203 1205 1206 1204
f 1205 1207 1208 1206
f 1207 1209 1210 1208
f 1209 1211 1212 1210
f 1211 1213 1214 1212
f 1213 1215 1216 1214
f 1215 1217 1218 1216
f 1217 1219 1220 1218
f 1219 1221 1222 1220
f 1221 1079 1080 1222
